<?xml version="1.0" encoding="UTF-8"?>
<svg xmlns="http://www.w3.org/2000/svg" xmlns:xlink="http://www.w3.org/1999/xlink" width="860pt" height="308pt" viewBox="0 0 1194 428" version="1.1">
<g id="surface1">
<path style=" stroke:none;fill-rule:nonzero;fill:rgb(22.108459%,44.499207%,75.782776%);fill-opacity:1;" d="M 299.039063 284.753906 L 282.640625 272.3125 C 263.039063 295.121094 238.679688 306.523438 209.558594 306.523438 C 183.078125 306.523438 161.144531 298.039063 143.757813 281.078125 C 126.367188 264.113281 117.675781 242.957031 117.675781 217.605469 C 117.675781 200.832031 121.5625 185.730469 129.335938 172.300781 C 137.113281 158.871094 148.066406 148.179688 162.203125 140.214844 C 176.339844 132.25 191.699219 128.269531 208.285156 128.269531 C 223.457031 128.269531 237.382813 131.308594 250.058594 137.386719 C 262.734375 143.464844 273.59375 152.394531 282.640625 164.175781 L 299.039063 151.59375 C 289.050781 137.738281 276.234375 126.972656 260.589844 119.292969 C 244.945313 111.609375 227.417969 107.769531 208.003906 107.769531 C 175.867188 107.769531 149.128906 118.160156 127.78125 138.941406 C 106.4375 159.722656 95.765625 185.332031 95.765625 215.769531 C 95.765625 244.703125 104.574219 269.394531 122.199219 289.84375 C 143.214844 314.0625 171.910156 326.171875 208.285156 326.171875 C 227.417969 326.171875 244.734375 322.566406 260.238281 315.355469 C 275.738281 308.148438 288.671875 297.949219 299.039063 284.753906 "/>
<path style=" stroke:none;fill-rule:nonzero;fill:rgb(22.108459%,44.499207%,75.782776%);fill-opacity:1;" d="M 426.410156 249.84375 C 421.074219 259.480469 413.871094 266.917969 404.792969 272.160156 C 395.71875 277.402344 385.753906 280.023438 374.902344 280.023438 C 364.046875 280.023438 354.082031 277.402344 345.007813 272.160156 C 335.929688 266.917969 328.726563 259.480469 323.394531 249.84375 C 318.0625 240.207031 315.394531 229.820313 315.394531 218.671875 C 315.394531 201.386719 321.242188 186.652344 332.9375 174.464844 C 344.632813 162.28125 358.621094 156.191406 374.902344 156.191406 C 391.085938 156.191406 405.050781 162.28125 416.792969 174.464844 C 428.535156 186.652344 434.40625 201.386719 434.40625 218.671875 C 434.40625 229.820313 431.738281 240.207031 426.410156 249.84375 M 374.972656 136.777344 C 351.433594 136.777344 331.960938 145.421875 316.550781 162.707031 C 302.539063 178.386719 295.535156 196.902344 295.535156 218.246094 C 295.535156 239.78125 302.9375 258.605469 317.742188 274.707031 C 332.542969 290.816406 351.621094 298.867188 374.972656 298.867188 C 398.226563 298.867188 417.257813 290.816406 432.0625 274.707031 C 446.863281 258.605469 454.265625 239.78125 454.265625 218.246094 C 454.265625 196.808594 447.261719 178.246094 433.253906 162.566406 C 417.839844 145.375 398.414063 136.777344 374.972656 136.777344 "/>
<path style=" stroke:none;fill-rule:nonzero;fill:rgb(22.108459%,44.499207%,75.782776%);fill-opacity:1;" d="M 523.101563 143.367188 C 516.480469 147.757813 510.1875 154.394531 504.21875 163.273438 L 504.21875 140.746094 L 484.222656 140.746094 L 484.222656 294.898438 L 504.21875 294.898438 L 504.21875 242.757813 C 504.21875 216.03125 505.429688 198.269531 507.855469 189.484375 C 511.023438 178.058594 515.640625 169.628906 521.703125 164.195313 C 527.761719 158.761719 534.054688 156.046875 540.582031 156.046875 C 543.378906 156.046875 546.828125 156.945313 550.929688 158.738281 L 561.140625 142.019531 C 554.984375 138.527344 549.207031 136.777344 543.796875 136.777344 C 536.617188 136.777344 529.71875 138.972656 523.101563 143.367188 "/>
<path style=" stroke:none;fill-rule:nonzero;fill:rgb(22.108459%,44.499207%,75.782776%);fill-opacity:1;" d="M 618.148438 207.195313 C 606.1875 200.960938 598.335938 195.53125 594.601563 190.902344 C 590.863281 186.367188 588.996094 181.597656 588.996094 176.59375 C 588.996094 170.925781 591.261719 165.964844 595.796875 161.714844 C 600.332031 157.464844 605.777344 155.339844 612.132813 155.339844 C 622.132813 155.339844 632.367188 160.488281 642.839844 170.78125 L 655.425781 157.605469 C 641.230469 143.71875 627.128906 136.777344 613.121094 136.777344 C 601.074219 136.777344 591.101563 140.652344 583.210938 148.394531 C 575.320313 156.140625 571.375 165.871094 571.375 177.582031 C 571.375 186.558594 573.851563 194.539063 578.800781 201.527344 C 583.753906 208.519531 593.097656 215.605469 606.832031 222.78125 C 619.632813 229.394531 627.855469 234.875 631.5 239.21875 C 635.140625 243.660156 636.964844 248.710938 636.964844 254.378906 C 636.964844 261.273438 634.207031 267.269531 628.695313 272.371094 C 623.179688 277.472656 616.5 280.023438 608.652344 280.023438 C 597.433594 280.023438 586.832031 274.308594 576.832031 262.878906 L 564.523438 277.046875 C 569.75 283.847656 576.359375 289.1875 584.339844 293.058594 C 592.324219 296.929688 600.707031 298.867188 609.484375 298.867188 C 622.648438 298.867188 633.621094 294.476563 642.398438 285.691406 C 651.175781 276.90625 655.566406 266.1875 655.566406 253.527344 C 655.566406 244.554688 652.996094 236.480469 647.859375 229.300781 C 642.625 222.214844 632.722656 214.847656 618.148438 207.195313 "/>
<path style=" stroke:none;fill-rule:nonzero;fill:rgb(22.108459%,44.499207%,75.782776%);fill-opacity:1;" d="M 698.035156 77.269531 C 693.675781 77.269531 689.910156 78.875 686.757813 82.085938 C 683.601563 85.300781 682.023438 89.171875 682.023438 93.707031 C 682.023438 98.144531 683.601563 101.972656 686.757813 105.183594 C 689.910156 108.394531 693.675781 110 698.035156 110 C 702.492188 110 706.300781 108.394531 709.457031 105.183594 C 712.609375 101.972656 714.1875 98.144531 714.1875 93.707031 C 714.1875 89.171875 712.609375 85.300781 709.457031 82.085938 C 706.300781 78.875 702.492188 77.269531 698.035156 77.269531 "/>
<path style=" stroke:none;fill-rule:nonzero;fill:rgb(22.108459%,44.499207%,75.782776%);fill-opacity:1;" d="M 688.316406 294.898438 L 707.894531 294.898438 L 707.894531 140.746094 L 688.316406 140.746094 Z M 688.316406 294.898438 "/>
<path style=" stroke:none;fill-rule:nonzero;fill:rgb(96.469116%,52.938843%,7.058716%);fill-opacity:1;" d="M 875.824219 250.164063 C 870.652344 259.503906 863.273438 266.90625 853.679688 272.382813 C 844.089844 277.851563 833.9375 280.589844 823.230469 280.589844 C 812.613281 280.589844 802.671875 277.832031 793.40625 272.308594 C 784.140625 266.792969 776.757813 259.078125 771.265625 249.171875 C 765.769531 239.265625 763.023438 228.886719 763.023438 218.035156 C 763.023438 207.09375 765.75 196.714844 771.195313 186.902344 C 776.640625 177.089844 783.976563 169.472656 793.199219 164.042969 C 802.417969 158.621094 812.472656 155.90625 823.371094 155.90625 C 840.316406 155.90625 854.589844 161.898438 866.183594 173.878906 C 877.777344 185.863281 883.578125 200.769531 883.578125 218.601563 C 883.578125 230.304688 880.992188 240.820313 875.824219 250.164063 M 882.316406 169.082031 C 874.671875 158.3125 865.792969 150.238281 855.675781 144.851563 C 845.558594 139.472656 834.253906 136.777344 821.761719 136.777344 C 800.132813 136.777344 781.625 144.664063 766.242188 160.441406 C 750.855469 176.214844 743.167969 195.203125 743.167969 217.398438 C 743.167969 240.066406 750.789063 259.3125 766.03125 275.136719 C 781.273438 290.957031 799.667969 298.867188 821.203125 298.867188 C 833.320313 298.867188 844.488281 296.316406 854.699219 291.21875 C 864.90625 286.113281 874.109375 278.515625 882.316406 268.402344 L 882.316406 294.898438 L 901.617188 294.898438 L 901.617188 81.238281 L 882.316406 81.238281 Z M 882.316406 169.082031 "/>
<path style=" stroke:none;fill-rule:nonzero;fill:rgb(96.469116%,52.938843%,7.058716%);fill-opacity:1;" d="M 944.15625 294.898438 L 963.738281 294.898438 L 963.738281 140.746094 L 944.15625 140.746094 Z M 944.15625 294.898438 "/>
<path style=" stroke:none;fill-rule:nonzero;fill:rgb(96.469116%,52.938843%,7.058716%);fill-opacity:1;" d="M 965.292969 82.085938 C 962.140625 78.875 958.332031 77.269531 953.875 77.269531 C 949.515625 77.269531 945.753906 78.875 942.597656 82.085938 C 939.441406 85.300781 937.863281 89.171875 937.863281 93.707031 C 937.863281 98.144531 939.441406 101.972656 942.597656 105.183594 C 945.753906 108.394531 949.515625 110 953.875 110 C 958.332031 110 962.140625 108.394531 965.292969 105.183594 C 968.449219 101.972656 970.027344 98.144531 970.027344 93.707031 C 970.027344 89.171875 968.449219 85.300781 965.292969 82.085938 "/>
<path style=" stroke:none;fill-rule:nonzero;fill:rgb(31.558228%,67.883301%,89.750671%);fill-opacity:1;" d="M 91.445313 97.90625 L 87.257813 93.605469 C 53.988281 125.996094 37.117188 166.464844 37.117188 213.894531 C 37.117188 258.914063 51.039063 297.894531 78.492188 329.75 L 83.035156 325.832031 C 56.546875 295.097656 43.117188 257.4375 43.117188 213.894531 C 43.117188 168.144531 59.375 129.121094 91.445313 97.90625 "/>
<path style=" stroke:none;fill-rule:nonzero;fill:rgb(31.558228%,67.883301%,89.750671%);fill-opacity:1;" d="M 291.753906 364.304688 C 268.429688 375.15625 241.980469 380.65625 213.140625 380.65625 L 213.140625 386.65625 C 242.859375 386.65625 270.160156 380.964844 294.285156 369.746094 C 318.445313 358.511719 338.886719 342.386719 355.046875 321.820313 L 350.328125 318.113281 C 334.757813 337.929688 315.050781 353.472656 291.753906 364.304688 "/>
<path style=" stroke:none;fill-rule:nonzero;fill:rgb(31.558228%,67.883301%,89.750671%);fill-opacity:1;" d="M 350.253906 116.964844 L 355.121094 113.457031 C 339.546875 91.855469 319.277344 74.828125 294.886719 62.847656 C 270.527344 50.890625 242.878906 44.828125 212.707031 44.828125 L 212.707031 50.828125 C 241.953125 50.828125 268.714844 56.683594 292.242188 68.234375 C 315.742188 79.777344 335.261719 96.171875 350.253906 116.964844 "/>
<path style=" stroke:none;fill-rule:nonzero;fill:rgb(31.558228%,67.883301%,89.750671%);fill-opacity:1;" d="M 325.039063 301.808594 L 320.320313 298.101563 C 315.902344 303.71875 311.039063 308.957031 305.855469 313.675781 L 309.894531 318.113281 C 315.324219 313.171875 320.417969 307.6875 325.039063 301.808594 "/>
<path style=" stroke:none;fill-rule:nonzero;fill:rgb(31.558228%,67.883301%,89.750671%);fill-opacity:1;" d="M 105.242188 304.320313 C 83.933594 279.589844 73.128906 249.289063 73.128906 214.25 C 73.128906 190.792969 78.429688 169.429688 88.882813 150.753906 L 83.648438 147.824219 C 72.6875 167.40625 67.128906 189.753906 67.128906 214.25 C 67.128906 250.765625 78.421875 282.386719 100.703125 308.242188 C 114 323.570313 129.953125 335.222656 148.125 342.890625 L 150.457031 337.367188 C 133.140625 330.054688 117.925781 318.933594 105.242188 304.320313 "/>
<path style=" stroke:none;fill-rule:nonzero;fill:rgb(31.558228%,67.883301%,89.750671%);fill-opacity:1;" d="M 209.574219 83.070313 C 233.117188 83.070313 254.652344 87.78125 273.585938 97.078125 C 292.484375 106.359375 308.183594 119.546875 320.246094 136.269531 L 325.113281 132.761719 C 312.46875 115.230469 296.023438 101.410156 276.230469 91.691406 C 256.46875 81.988281 234.042969 77.070313 209.574219 77.070313 C 187.855469 77.070313 167.796875 80.898438 149.949219 88.449219 L 152.285156 93.972656 C 169.390625 86.738281 188.664063 83.070313 209.574219 83.070313 "/>
<path style=" stroke:none;fill-rule:nonzero;fill:rgb(22.108459%,44.499207%,75.782776%);fill-opacity:1;" d="M 263.222656 319.628906 L 265.75 325.066406 C 282.902344 317.09375 297.414063 305.644531 308.890625 291.039063 L 304.175781 287.335938 C 293.285156 301.1875 279.507813 312.054688 263.222656 319.628906 "/>
<path style=" stroke:none;fill-rule:nonzero;fill:rgb(22.108459%,44.499207%,75.782776%);fill-opacity:1;" d="M 266.191406 107.207031 C 248.902344 98.722656 229.289063 94.417969 207.890625 94.417969 L 207.890625 100.417969 C 228.363281 100.417969 247.089844 104.515625 263.546875 112.59375 C 279.972656 120.660156 293.617188 132.121094 304.097656 146.65625 L 308.964844 143.144531 C 297.902344 127.804688 283.511719 115.714844 266.191406 107.207031 "/>
<path style=" stroke:none;fill-rule:nonzero;fill:rgb(22.108459%,44.499207%,75.782776%);fill-opacity:1;" d="M 117.1875 292.742188 C 98.664063 271.25 89.273438 244.90625 89.273438 214.4375 C 89.273438 191.113281 95.304688 170.214844 107.203125 152.320313 L 102.207031 149 C 89.644531 167.890625 83.273438 189.910156 83.273438 214.4375 C 83.273438 246.386719 93.15625 274.046875 112.652344 296.667969 C 125.507813 311.484375 141.183594 322.363281 159.246094 329 C 173.8125 334.351563 190.285156 337.0625 208.195313 337.0625 L 208.195313 331.0625 C 190.992188 331.0625 175.21875 328.472656 161.3125 323.367188 C 144.214844 317.085938 129.367188 306.777344 117.1875 292.742188 "/>
<path style=" stroke:none;fill-rule:nonzero;fill:rgb(75.02594%,10.392761%,17.410278%);fill-opacity:1;" d="M 1140.496094 217.898438 C 1140.496094 220.542969 1140.3125 223.140625 1139.988281 225.703125 C 1139.949219 235.808594 1139.777344 244.035156 1139.125 250.726563 C 1138.453125 257.625 1137.269531 262.894531 1135.191406 266.917969 C 1133.710938 269.78125 1131.777344 272.015625 1129.246094 273.753906 C 1123.09375 277.992188 1113.421875 279.308594 1098.226563 279.714844 C 1095.101563 279.800781 1091.738281 279.84375 1088.128906 279.867188 C 1085.125 279.886719 1081.957031 279.890625 1078.597656 279.890625 C 1067.613281 279.890625 1057.3125 276.996094 1048.394531 271.945313 C 1046.054688 270.621094 1043.804688 269.15625 1041.667969 267.542969 C 1026.519531 256.25 1016.695313 238.199219 1016.695313 217.898438 C 1016.695313 188.914063 1036.722656 164.527344 1063.664063 157.828125 C 1068.449219 156.636719 1073.449219 155.996094 1078.597656 155.996094 C 1092.429688 155.996094 1105.21875 160.558594 1115.535156 168.257813 C 1130.675781 179.554688 1140.496094 197.597656 1140.496094 217.898438 M 1157.175781 194.8125 C 1153.457031 182.128906 1146.753906 170.734375 1137.875 161.417969 C 1122.960938 145.765625 1101.925781 135.996094 1078.597656 135.996094 C 1033.363281 135.996094 996.695313 172.664063 996.695313 217.898438 C 996.695313 263.128906 1033.363281 299.796875 1078.597656 299.796875 C 1082.34375 299.796875 1086.027344 299.523438 1089.640625 299.035156 C 1090.378906 299.023438 1091.117188 299.027344 1091.851563 299.003906 L 1159.703125 299.003906 L 1159.703125 231.160156 C 1159.726563 230.332031 1159.746094 229.535156 1159.757813 228.761719 C 1160.230469 225.207031 1160.496094 221.582031 1160.496094 217.898438 C 1160.496094 209.875 1159.324219 202.136719 1157.175781 194.8125 "/>
</g>
</svg>
