<svg id="Layer_1" data-name="Layer 1" xmlns="http://www.w3.org/2000/svg" xmlns:xlink="http://www.w3.org/1999/xlink" width="16.1" height="16.1" viewBox="0 0 16.1 16.1"><defs><style>.cls-1{fill:none;}.cls-2{fill:#5415e5;}.cls-3{clip-path:url(#clip-path);}.cls-4{fill:#fff;}</style><clipPath id="clip-path" transform="translate(0.1 0.14)"><rect class="cls-1" x="-0.18" y="2.38" width="15.14" height="11.21"/></clipPath></defs><rect class="cls-2" width="16.1" height="16.1"/><g class="cls-3"><path class="cls-4" d="M10.54,8.88l-1.18-2-1.31.73L10.56,12l4.33-8.11H13.38Z" transform="translate(0.1 0.14)"/><path class="cls-4" d="M8.75,5.71A3.77,3.77,0,0,0,6.88,4.2,4,4,0,0,0,1.37,7.65,4.07,4.07,0,0,0,2,10.06a4,4,0,0,0,4.35,1.82,3.84,3.84,0,0,0,2.07-1.23l-.8-1.39A2.55,2.55,0,0,1,6,10.34,2.46,2.46,0,0,1,3,7.77,2.45,2.45,0,0,1,4.8,5.57a2.44,2.44,0,0,1,1.51.07,3.43,3.43,0,0,1,1.13.82Z" transform="translate(0.1 0.14)"/></g></svg>