<svg width="27" height="32" viewBox="0 0 27 32" fill="none" xmlns="http://www.w3.org/2000/svg">
<path d="M26.0938 12.9375C26.0938 12.1875 26.0365 11.4479 25.9219 10.7188C25.8073 9.98958 25.6406 9.27604 25.4219 8.57812C25.2031 7.88021 24.9375 7.20833 24.625 6.5625C24.3125 5.91667 23.9479 5.29167 23.5312 4.6875C23.1146 4.08333 22.6562 3.51042 22.1562 2.96875C21.6562 2.42708 21.1094 1.92188 20.5156 1.45312C19.9219 0.984375 19.3021 0.552083 18.6562 0.15625C18.4896 0.0520833 18.3177 0 18.1406 0C17.9635 0 17.7969 0.046875 17.6406 0.140625C17.4844 0.234375 17.3646 0.354167 17.2812 0.5C17.1354 0.75 17.099 1.00521 17.1719 1.26562C17.2448 1.52604 17.3958 1.72917 17.625 1.875C19.6458 3.0625 21.2292 4.63542 22.375 6.59375C23.5208 8.55208 24.0938 10.6667 24.0938 12.9375C24.0938 14.8125 23.7656 16.5625 23.1094 18.1875C22.4531 19.8125 21.5469 21.1979 20.3906 22.3438C19.2344 23.4896 17.849 24.3906 16.2344 25.0469C14.6198 25.7031 12.875 26.0312 11 26.0312C10.7292 26.0312 10.4531 26.0208 10.1719 26C9.89062 25.9792 9.60938 25.9531 9.32812 25.9219C9.04688 25.8906 8.77083 25.849 8.5 25.7969C8.22917 25.7448 7.96354 25.6823 7.70312 25.6094C7.44271 25.5365 7.17708 25.4583 6.90625 25.375C6.63542 25.2917 6.375 25.1979 6.125 25.0938C5.875 24.9896 5.61979 24.9896 5.35938 25.0938C5.09896 25.1979 4.91667 25.375 4.8125 25.625C4.70833 25.875 4.71354 26.1302 4.82812 26.3906C4.94271 26.651 5.125 26.8333 5.375 26.9375C7.16667 27.6667 9.04167 28.0312 11 28.0312H11.0312V30H8.125C7.83333 30 7.58333 30.0938 7.375 30.2812C7.16667 30.4688 7.0625 30.7031 7.0625 30.9844C7.0625 31.2656 7.16667 31.5052 7.375 31.7031C7.58333 31.901 7.83333 32 8.125 32H16.0312C16.3229 32 16.5677 31.901 16.7656 31.7031C16.9635 31.5052 17.0625 31.2656 17.0625 30.9844C17.0625 30.7031 16.9635 30.4688 16.7656 30.2812C16.5677 30.0938 16.3229 30 16.0312 30H13V27.9062C16.875 27.4479 20.026 25.8438 22.4531 23.0938C24.8802 20.3438 26.0938 16.9583 26.0938 12.9375ZM22 13.0312C22 11.8438 21.8177 10.6875 21.4531 9.5625C21.0885 8.4375 20.5677 7.42188 19.8906 6.51562C19.2135 5.60938 18.4219 4.81771 17.5156 4.14062C16.6094 3.46354 15.5938 2.9375 14.4688 2.5625C13.3438 2.1875 12.1875 2 11 2C9.5 2 8.07292 2.29167 6.71875 2.875C5.36458 3.45833 4.19271 4.24479 3.20312 5.23438C2.21354 6.22396 1.43229 7.40104 0.859375 8.76562C0.286458 10.1302 0 11.5521 0 13.0312C0 15.0312 0.489583 16.875 1.46875 18.5625C2.44792 20.25 3.78125 21.5833 5.46875 22.5625C7.15625 23.5417 9 24.0312 11 24.0312C12.5 24.0312 13.9271 23.7396 15.2812 23.1562C16.6354 22.5729 17.8073 21.7917 18.7969 20.8125C19.7865 19.8333 20.5677 18.6667 21.1406 17.3125C21.7135 15.9583 22 14.5312 22 13.0312ZM1.96875 13.0312C1.96875 11.4062 2.375 9.90104 3.1875 8.51562C4 7.13021 5.09896 6.03125 6.48438 5.21875C7.86979 4.40625 9.375 4 11 4C13.4792 4 15.599 4.88542 17.3594 6.65625C19.1198 8.42708 20 10.5521 20 13.0312C20 14.2604 19.7656 15.4271 19.2969 16.5312C18.8281 17.6354 18.1875 18.5885 17.375 19.3906C16.5625 20.1927 15.6042 20.8333 14.5 21.3125C13.3958 21.7917 12.2292 22.0312 11 22.0312C8.52083 22.0312 6.39583 21.151 4.625 19.3906C2.85417 17.6302 1.96875 15.5104 1.96875 13.0312Z" fill="black"/>
</svg>
