<svg width="123" height="35" viewBox="0 0 123 35" fill="none" xmlns="http://www.w3.org/2000/svg">
<g clip-path="url(#clip0)">
<g clip-path="url(#clip1)">
<path d="M109.082 17.4813L105.384 11.121L101.243 13.4137L109.156 27.2435L122.764 1.72858H118.031L109.082 17.4813Z" fill="#91076C"/>
<path d="M103.462 7.49725C102.023 5.25467 100.045 3.70775 97.567 2.72922C95.0888 1.75069 92.3656 1.57644 89.783 2.23115C87.2003 2.88586 84.8889 4.33634 83.1762 6.37727C81.4634 8.4182 80.436 10.9462 80.2394 13.6033C80.0428 16.2604 80.687 18.912 82.0807 21.1828C83.4744 23.4536 85.5471 25.2285 88.0053 26.2561C90.4635 27.2838 93.1827 27.5123 95.7779 26.9091C98.3731 26.306 100.525 25.0345 102.279 23.0281L99.764 18.6647C97.3974 21.401 96.2297 21.6956 94.6515 22.0624C93.0732 22.4292 91.4195 22.2903 89.9246 21.6653C88.4296 21.0403 87.1691 19.9609 86.3215 18.5799C85.474 17.199 85.0822 15.5864 85.2018 13.9704C85.3213 12.3545 85.9462 10.8172 86.9878 9.57596C88.0294 8.33478 89.435 7.45266 91.0057 7.0545C92.5763 6.65635 94.2633 6.68043 95.7704 7.27552C97.2775 7.87061 98.3243 8.86804 99.3203 9.864L103.462 7.49725Z" fill="#91076C"/>
</g>
<path d="M2.37893 10.1668H3.32398V13.9144C3.66072 13.4908 4.03005 13.0562 4.43197 12.6109C4.84475 12.1655 5.29556 11.7636 5.78438 11.4051C6.28406 11.0358 6.83262 10.7371 7.43007 10.509C8.02752 10.2808 8.67928 10.1668 9.38535 10.1668C10.3739 10.1668 11.27 10.3732 12.0739 10.7859C12.8777 11.1987 13.5621 11.7582 14.1269 12.4642C14.7026 13.1703 15.1426 14.0013 15.4467 14.9572C15.7617 15.9023 15.9193 16.9125 15.9193 17.9879C15.9193 19.3675 15.7292 20.6438 15.349 21.817C14.9688 22.9793 14.4256 23.9841 13.7196 24.8314C13.0135 25.6787 12.1553 26.3413 11.1451 26.8193C10.1349 27.2864 9.00516 27.5199 7.75595 27.5199C7.29972 27.5199 6.87064 27.4927 6.46872 27.4384C6.07767 27.395 5.70291 27.3244 5.34444 27.2266C4.99683 27.1288 4.65466 27.0039 4.31791 26.8518C3.99203 26.6998 3.66072 26.5151 3.32398 26.2979V34.1842H0V11.0955L2.37893 10.1668ZM3.32398 22.6643C3.32398 23.164 3.43261 23.6365 3.64986 24.0819C3.86711 24.5164 4.17127 24.902 4.56232 25.2387C4.95338 25.5646 5.42048 25.8253 5.96361 26.0209C6.50674 26.2055 7.10419 26.2979 7.75595 26.2979C8.37512 26.2979 8.95628 26.1403 9.49941 25.8253C10.0534 25.5103 10.5314 25.0649 10.9333 24.4892C11.3461 23.9026 11.6665 23.2074 11.8946 22.4036C12.1336 21.5997 12.2531 20.709 12.2531 19.7314C12.2531 18.5039 12.1445 17.4339 11.9272 16.5214C11.71 15.5981 11.4058 14.8323 11.0148 14.224C10.6346 13.6157 10.1783 13.1594 9.64606 12.8553C9.12465 12.5511 8.54893 12.3991 7.91889 12.3991C7.44093 12.3991 6.97927 12.4751 6.5339 12.6272C6.09939 12.7684 5.68661 12.9639 5.29556 13.2138C4.9045 13.4636 4.5406 13.7515 4.20386 14.0773C3.87798 14.4032 3.58468 14.7454 3.32398 15.1039V22.6643Z" fill="#91076C"/>
<path d="M23.9848 10.4764V22.3547C23.9848 22.7675 24.0771 23.1585 24.2618 23.5279C24.4573 23.8972 24.7235 24.2176 25.0602 24.4892C25.3969 24.7608 25.7826 24.978 26.2171 25.141C26.6624 25.2931 27.1404 25.3691 27.6509 25.3691C27.9768 25.3691 28.3244 25.2985 28.6938 25.1573C29.074 25.0161 29.4433 24.826 29.8018 24.587C30.1602 24.3371 30.4915 24.0493 30.7957 23.7234C31.1107 23.3867 31.3768 23.0336 31.5941 22.6643V10.4764H34.8855V27.1614H31.5941V24.033C31.3008 24.5109 30.9315 24.9617 30.4861 25.3854C30.0516 25.809 29.5791 26.1784 29.0685 26.4934C28.558 26.8084 28.0311 27.0582 27.488 27.2429C26.9449 27.4276 26.4289 27.5199 25.9401 27.5199C25.2123 27.5199 24.5279 27.3841 23.887 27.1126C23.2461 26.841 22.6867 26.4717 22.2087 26.0046C21.7308 25.5375 21.3506 24.9889 21.0682 24.3589C20.7966 23.7288 20.6608 23.0608 20.6608 22.3547V10.4764H23.9848Z" fill="#91076C"/>
<path d="M40.7676 2.89965L43.114 1.97089H44.0916V13.6211C44.3632 13.154 44.7162 12.7086 45.1507 12.285C45.5961 11.8614 46.074 11.4975 46.5846 11.1933C47.106 10.8783 47.6437 10.6284 48.1977 10.4438C48.7626 10.2591 49.3003 10.1668 49.8108 10.1668C50.7776 10.1668 51.6683 10.3623 52.483 10.7534C53.2977 11.1444 53.9984 11.6767 54.585 12.3502C55.1715 13.0237 55.6278 13.8112 55.9537 14.7128C56.2904 15.6035 56.4588 16.5595 56.4588 17.5806C56.4588 18.9601 56.2144 20.2528 55.7255 21.4585C55.2476 22.6643 54.585 23.718 53.7377 24.6196C52.9012 25.5103 51.9182 26.2164 50.7885 26.7378C49.6587 27.2592 48.453 27.5199 47.1712 27.5199C45.9328 27.5199 44.7651 27.357 43.668 27.0311C42.5817 26.7052 41.6149 26.2109 40.7676 25.5483V2.89965ZM44.0916 24.4403C44.298 24.6359 44.5207 24.8368 44.7597 25.0432C45.0095 25.2496 45.2865 25.4397 45.5907 25.6135C45.8948 25.7764 46.2316 25.9122 46.6009 26.0209C46.9811 26.1186 47.4047 26.1675 47.8718 26.1675C48.6431 26.1675 49.3437 25.9828 49.9737 25.6135C50.6038 25.2333 51.1415 24.7119 51.5869 24.0493C52.0431 23.3758 52.3907 22.5828 52.6297 21.6704C52.8795 20.747 53.0044 19.7422 53.0044 18.656C53.0044 17.8304 52.8741 17.0591 52.6134 16.3422C52.3635 15.6144 52.0159 14.9844 51.5706 14.4521C51.1361 13.909 50.6201 13.4853 50.0226 13.1812C49.436 12.8662 48.806 12.7086 48.1325 12.7086C47.7523 12.7086 47.3613 12.763 46.9594 12.8716C46.5683 12.9802 46.1935 13.1269 45.8351 13.3115C45.4766 13.4962 45.1453 13.7134 44.8411 13.9633C44.537 14.2023 44.2871 14.463 44.0916 14.7454V24.4403Z" fill="#91076C"/>
<path d="M64.5243 27.1614H61.2003V2.91594L63.563 1.97089H64.5243V27.1614Z" fill="#91076C"/>
<path d="M70.6509 11.1118L72.9809 10.1668H73.9422V27.1614H70.6509V11.1118ZM70.3902 4.08911C70.3902 3.8284 70.439 3.58399 70.5368 3.35588C70.6346 3.12776 70.7703 2.9268 70.9441 2.753C71.118 2.5792 71.3189 2.44341 71.547 2.34565C71.7751 2.24788 72.0196 2.199 72.2803 2.199C72.541 2.199 72.7854 2.24788 73.0135 2.34565C73.2416 2.44341 73.4426 2.5792 73.6164 2.753C73.7902 2.9268 73.926 3.12776 74.0237 3.35588C74.1215 3.58399 74.1704 3.8284 74.1704 4.08911C74.1704 4.34981 74.1215 4.59422 74.0237 4.82234C73.926 5.05046 73.7902 5.25141 73.6164 5.42522C73.4426 5.59902 73.2416 5.7348 73.0135 5.83257C72.7854 5.93033 72.541 5.97921 72.2803 5.97921C72.0196 5.97921 71.7751 5.93033 71.547 5.83257C71.3189 5.7348 71.118 5.59902 70.9441 5.42522C70.7703 5.25141 70.6346 5.05046 70.5368 4.82234C70.439 4.59422 70.3902 4.34981 70.3902 4.08911Z" fill="#91076C"/>
</g>
<defs>
<clipPath id="clip0">
<rect width="123" height="35" fill="white"/>
</clipPath>
<clipPath id="clip1">
<rect width="47.6416" height="35.265" fill="white" transform="translate(75.3584 -3)"/>
</clipPath>
</defs>
</svg>
