<?xml version="1.0" encoding="UTF-8"?>
<svg width="1196" height="255" viewBox="0 0 1196 255" fill="none" xmlns="http://www.w3.org/2000/svg">
<path d="M418.203 194.083C418.203 202.923 416.673 211.026 413.669 218.336C410.665 225.646 406.527 231.936 401.312 237.15C396.097 242.363 389.976 246.443 383.004 249.333C376.032 252.223 368.493 253.64 360.501 253.64C352.565 253.64 345.083 252.166 338.054 249.22C331.082 246.273 324.961 242.136 319.689 236.866C314.418 231.596 310.337 225.306 307.276 218.053C304.272 210.743 302.741 202.753 302.741 194.026V93.6696H331.649V146.426C333.18 144.443 335.107 142.686 337.317 141.156C339.528 139.626 341.909 138.323 344.516 137.36C347.067 136.396 349.731 135.603 352.508 135.093C355.229 134.583 357.95 134.3 360.557 134.3C368.55 134.3 376.088 135.773 383.06 138.776C390.032 141.78 396.154 145.916 401.369 151.3C406.583 156.683 410.665 162.973 413.725 170.226C416.73 177.48 418.203 185.47 418.203 194.083ZM389.182 194.083C389.182 189.72 388.445 185.64 386.915 181.9C385.384 178.16 383.344 174.873 380.736 172.153C378.129 169.433 375.068 167.28 371.61 165.693C368.153 164.163 364.412 163.37 360.501 163.37C356.533 163.37 352.848 164.22 349.391 165.976C345.933 167.676 342.872 170 340.265 172.833C337.658 175.666 335.617 178.953 334.143 182.636C332.67 186.32 331.933 190.116 331.933 194.083C331.933 198.446 332.67 202.47 334.143 206.21C335.617 209.95 337.658 213.18 340.265 215.9C342.872 218.62 345.933 220.83 349.391 222.36C352.848 223.946 356.59 224.74 360.501 224.74C364.412 224.74 368.153 223.946 371.61 222.36C375.068 220.773 378.129 218.62 380.736 215.9C383.344 213.18 385.384 209.95 386.915 206.21C388.445 202.526 389.182 198.446 389.182 194.083Z" fill="#429BD5"/>
<path d="M463.151 251.6H434.13V93.6696H463.151V251.6Z" fill="#429BD5"/>
<path d="M568.184 238.397C565.86 240.493 563.366 242.477 560.759 244.347C558.152 246.217 555.374 247.803 552.483 249.22C549.593 250.58 546.645 251.657 543.584 252.507C540.523 253.3 537.406 253.697 534.232 253.697C527.26 253.697 520.741 252.45 514.619 250.013C508.498 247.577 503.113 244.063 498.522 239.53C493.93 234.997 490.303 229.5 487.639 222.983C484.975 216.467 483.671 209.157 483.671 201.11V138.663H512.352V201.11C512.352 204.907 512.919 208.307 514.109 211.31C515.3 214.313 516.83 216.807 518.814 218.847C520.798 220.887 523.065 222.417 525.729 223.493C528.393 224.57 531.171 225.08 534.232 225.08C537.179 225.08 539.957 224.4 542.621 223.04C545.228 221.68 547.552 219.867 549.536 217.6C551.52 215.333 553.05 212.783 554.184 209.95C555.318 207.117 555.884 204.17 555.884 201.167V138.72H584.679V251.713H577.707L568.184 238.397Z" fill="#429BD5"/>
<path d="M651.509 223.946C652.643 224.286 653.777 224.513 654.91 224.626C656.044 224.74 657.178 224.796 658.311 224.796C661.145 224.796 663.809 224.4 666.417 223.606C669.024 222.813 671.462 221.737 673.729 220.263C675.996 218.847 678.037 217.09 679.851 214.993C681.664 212.897 683.082 210.63 684.215 208.08L705.301 229.273C702.637 233.07 699.576 236.47 696.062 239.53C692.547 242.59 688.806 245.14 684.782 247.236C680.757 249.333 676.506 250.977 672.028 252.053C667.55 253.13 662.959 253.696 658.255 253.696C650.319 253.696 642.837 252.223 635.808 249.276C628.836 246.33 622.715 242.193 617.443 236.923C612.228 231.653 608.091 225.363 605.03 218.11C602.026 210.8 600.495 202.81 600.495 194.083C600.495 185.13 602.026 176.97 605.03 169.603C608.034 162.236 612.172 155.946 617.443 150.733C622.658 145.52 628.78 141.496 635.808 138.606C642.837 135.716 650.262 134.3 658.255 134.3C662.959 134.3 667.551 134.866 672.085 136C676.563 137.133 680.871 138.72 684.895 140.873C688.92 142.97 692.718 145.577 696.232 148.637C699.746 151.697 702.864 155.153 705.528 158.95L651.509 223.946ZM666.303 164.56C664.943 164.05 663.639 163.767 662.336 163.597C661.032 163.483 659.672 163.37 658.255 163.37C654.287 163.37 650.602 164.106 647.145 165.523C643.687 166.94 640.626 169.037 638.076 171.7C635.525 174.363 633.484 177.593 632.011 181.333C630.537 185.073 629.8 189.323 629.8 194.026C629.8 195.103 629.857 196.293 629.97 197.597C630.083 198.957 630.253 200.26 630.48 201.676C630.707 203.093 631.047 204.34 631.387 205.643C631.727 206.946 632.181 208.023 632.747 209.043L666.303 164.56Z" fill="#429BD5"/>
<path d="M833.12 194.083C833.12 202.923 831.59 211.026 828.586 218.336C825.581 225.646 821.444 231.936 816.229 237.15C811.014 242.363 804.949 246.443 797.92 249.333C790.892 252.223 783.41 253.64 775.418 253.64C767.482 253.64 760 252.166 752.971 249.22C745.943 246.273 739.821 242.136 734.606 236.866C729.391 231.596 725.254 225.306 722.193 218.053C719.189 210.743 717.658 202.753 717.658 194.026V93.6696H746.566V146.426C748.097 144.443 750.024 142.686 752.234 141.156C754.445 139.626 756.826 138.323 759.433 137.36C761.984 136.396 764.648 135.603 767.425 135.093C770.146 134.583 772.867 134.3 775.418 134.3C783.466 134.3 790.949 135.773 797.92 138.776C804.949 141.78 811.014 145.916 816.229 151.3C821.444 156.626 825.525 162.973 828.586 170.226C831.59 177.48 833.12 185.47 833.12 194.083ZM804.099 194.083C804.099 189.72 803.362 185.64 801.832 181.9C800.301 178.16 798.261 174.873 795.653 172.153C793.046 169.433 789.985 167.28 786.527 165.693C783.07 164.163 779.329 163.37 775.418 163.37C771.506 163.37 767.765 164.22 764.308 165.976C760.85 167.733 757.789 170 755.182 172.833C752.575 175.666 750.534 178.953 749.06 182.636C747.586 186.32 746.85 190.116 746.85 194.083C746.85 198.446 747.586 202.47 749.06 206.21C750.534 209.95 752.575 213.18 755.182 215.9C757.789 218.62 760.85 220.83 764.308 222.36C767.765 223.89 771.506 224.74 775.418 224.74C779.329 224.74 783.07 223.946 786.527 222.36C789.985 220.773 793.046 218.62 795.653 215.9C798.261 213.18 800.301 209.95 801.832 206.21C803.362 202.526 804.099 198.446 804.099 194.083Z" fill="#252525"/>
<path d="M958.502 251.6H951.53L940.364 236.073C937.643 238.51 934.696 240.833 931.635 242.986C928.574 245.14 925.343 247.01 921.999 248.597C918.655 250.183 915.14 251.43 911.626 252.336C908.112 253.243 904.484 253.696 900.8 253.696C892.864 253.696 885.382 252.336 878.353 249.673C871.381 247.01 865.26 243.1 859.988 238C854.773 232.9 850.636 226.666 847.575 219.3C844.57 211.933 843.04 203.49 843.04 194.083C843.04 185.3 844.57 177.197 847.575 169.887C850.579 162.52 854.717 156.23 859.988 150.96C865.203 145.69 871.325 141.61 878.353 138.663C885.382 135.716 892.807 134.3 900.8 134.3C904.484 134.3 908.055 134.753 911.683 135.66C915.254 136.567 918.768 137.813 922.112 139.456C925.513 141.1 928.687 142.97 931.748 145.123C934.809 147.276 937.643 149.656 940.364 152.206L951.53 138.833H958.502V251.6ZM929.481 194.083C929.481 190.116 928.744 186.32 927.214 182.637C925.683 178.953 923.643 175.666 921.035 172.833C918.428 170 915.367 167.676 911.909 165.976C908.452 164.276 904.711 163.37 900.8 163.37C896.888 163.37 893.147 164.05 889.69 165.353C886.232 166.713 883.171 168.64 880.621 171.246C878.07 173.853 876.029 177.083 874.555 180.88C873.082 184.733 872.345 189.096 872.345 194.026C872.345 198.956 873.082 203.32 874.555 207.173C876.029 211.026 878.07 214.2 880.621 216.807C883.171 219.413 886.232 221.397 889.69 222.7C893.147 224.06 896.888 224.683 900.8 224.683C904.711 224.683 908.452 223.833 911.909 222.077C915.367 220.377 918.428 218.053 921.035 215.22C923.643 212.387 925.683 209.1 927.214 205.416C928.744 201.733 929.481 198.05 929.481 194.083Z" fill="#252525"/>
<path d="M1042.45 251.599H976.638V222.926H1042.5C1044.49 222.926 1046.19 222.246 1047.55 220.829C1048.91 219.413 1049.64 217.713 1049.64 215.786C1049.64 213.746 1048.96 212.386 1047.55 211.763C1046.13 211.139 1044.43 210.799 1042.5 210.799H1012.52C1007.53 210.799 1002.82 209.836 998.46 207.966C994.096 206.096 990.298 203.489 987.067 200.203C983.836 196.916 981.286 193.119 979.415 188.756C977.545 184.393 976.638 179.746 976.638 174.703C976.638 169.716 977.601 165.013 979.415 160.649C981.286 156.286 983.836 152.489 987.067 149.259C990.298 146.029 994.096 143.479 998.46 141.609C1002.82 139.739 1007.47 138.833 1012.52 138.833H1070.84V167.506H1012.52C1010.53 167.506 1008.89 168.186 1007.47 169.603C1006.06 171.019 1005.38 172.719 1005.38 174.646C1005.38 176.686 1006.06 178.443 1007.47 179.859C1008.89 181.276 1010.59 182.013 1012.52 182.013H1042.5C1047.43 182.013 1052.08 182.863 1056.45 184.506C1060.81 186.149 1064.61 188.473 1067.84 191.419C1071.07 194.366 1073.62 197.936 1075.55 202.073C1077.48 206.209 1078.38 210.743 1078.38 215.673C1078.38 220.659 1077.42 225.306 1075.55 229.669C1073.68 233.976 1071.07 237.773 1067.84 241.059C1064.61 244.346 1060.81 246.896 1056.45 248.766C1052.08 250.636 1047.38 251.599 1042.45 251.599Z" fill="#252525"/>
<path d="M1122.48 251.6H1093.69V93.6696H1122.48V143.593C1125.94 140.986 1129.46 139.116 1133.14 138.04C1136.77 136.963 1140.51 136.396 1144.31 136.396C1151.28 136.396 1157.8 137.7 1163.92 140.363C1170.04 142.97 1175.37 146.596 1179.9 151.243C1184.44 155.833 1188.01 161.216 1190.67 167.393C1193.34 173.57 1194.64 180.086 1194.64 187.056V251.6H1165.62V187.056H1165.85C1165.85 184.11 1165.28 181.333 1164.14 178.67C1163.01 176.063 1161.48 173.74 1159.5 171.756C1157.51 169.773 1155.25 168.243 1152.64 167.11C1150.03 165.976 1147.25 165.41 1144.31 165.41C1141.3 165.41 1138.41 165.976 1135.75 167.11C1133.08 168.243 1130.76 169.773 1128.77 171.756C1126.79 173.74 1125.26 176.006 1124.13 178.67C1122.99 181.333 1122.43 184.11 1122.43 187.056V251.6H1122.48Z" fill="#252525"/>
<path d="M79.8642 91.7431C65.4102 91.7431 51.8631 95.6531 40.1865 102.453V35.0764H0.508789V171.076C0.508789 214.88 36.0487 250.41 79.8642 250.41C123.68 250.41 159.22 214.88 159.22 171.076C159.22 127.273 123.68 91.7431 79.8642 91.7431ZM79.8642 210.743C57.9281 210.743 40.1865 193.006 40.1865 171.076C40.1865 149.146 57.9281 131.41 79.8642 131.41C101.8 131.41 119.542 149.146 119.542 171.076C119.542 193.006 101.744 210.743 79.8642 210.743Z" fill="#252525"/>
<path d="M204.566 233.41L79.8643 171.076L204.566 108.743L79.8643 18.0764" stroke="#252525" stroke-width="6" stroke-miterlimit="10"/>
<path d="M79.8641 188.076C89.2556 188.076 96.8689 180.465 96.8689 171.076C96.8689 161.688 89.2556 154.076 79.8641 154.076C70.4727 154.076 62.8594 161.688 62.8594 171.076C62.8594 180.465 70.4727 188.076 79.8641 188.076Z" fill="#F47C20"/>
<path d="M204.565 250.41C213.957 250.41 221.57 242.799 221.57 233.41C221.57 224.021 213.957 216.41 204.565 216.41C195.174 216.41 187.561 224.021 187.561 233.41C187.561 242.799 195.174 250.41 204.565 250.41Z" fill="#F47C20"/>
<path d="M204.565 125.743C213.957 125.743 221.57 118.132 221.57 108.743C221.57 99.3542 213.957 91.743 204.565 91.743C195.174 91.743 187.561 99.3542 187.561 108.743C187.561 118.132 195.174 125.743 204.565 125.743Z" fill="#F47C20"/>
<path d="M79.8641 35.0764C89.2556 35.0764 96.8689 27.4653 96.8689 18.0764C96.8689 8.68757 89.2556 1.07642 79.8641 1.07642C70.4727 1.07642 62.8594 8.68757 62.8594 18.0764C62.8594 27.4653 70.4727 35.0764 79.8641 35.0764Z" fill="#F47C20"/>
</svg>
