<svg id="Layer_1" data-name="Layer 1" xmlns="http://www.w3.org/2000/svg" xmlns:xlink="http://www.w3.org/1999/xlink" width="94.81" height="40.37" viewBox="0 0 94.81 40.37"><defs><style>.cls-1{fill:none;}.cls-2{fill:#5415e5;}.cls-3{clip-path:url(#clip-path);}</style><clipPath id="clip-path" transform="translate(-0.88 -7.01)"><rect class="cls-1" x="20.69" y="-0.47" width="75.38" height="55.8"/></clipPath></defs><path class="cls-2" d="M26.86,42.27a14.9,14.9,0,0,1-23.69-2A15.74,15.74,0,0,1,1,32.17C.89,29.83.87,21.53.89,21.53h8a105.52,105.52,0,0,0,.16,11.29A6,6,0,0,0,9.61,35,6.72,6.72,0,0,0,22.5,32.33v0A25.79,25.79,0,0,0,26.86,42.27Z" transform="translate(-0.88 -7.01)"/><g class="cls-3"><path class="cls-2" d="M74.05,31.94,68.2,21.87,61.64,25.5,74.16,47.38,95.7,7H88.21Z" transform="translate(-0.88 -7.01)"/><path class="cls-2" d="M65.15,16.14a19,19,0,0,0-9.32-7.55A20.09,20.09,0,1,0,53,46.85a18.89,18.89,0,0,0,10.28-6.14l-4-6.9c-3.74,4.33-5.59,4.79-8.09,5.38a12.22,12.22,0,0,1-5.77-23.75,12.37,12.37,0,0,1,7.54.35,16.41,16.41,0,0,1,5.62,4.09Z" transform="translate(-0.88 -7.01)"/></g></svg>